<mxfile host="app.diagrams.net" modified="2021-11-23T04:42:43.287Z" agent="5.0 (Windows NT 10.0; WOW64) AppleWebKit/537.36 (KHTML, like Gecko) Chrome/93.0.4577.100 Safari/537.36" etag="vRxnHWmgrEHYsiO-b_gQ" version="15.7.4" type="github">
  <diagram id="7NeZhMhzlDyfyFx5x0S0" name="Trang-1">
    <mxGraphModel dx="1570" dy="773" grid="1" gridSize="10" guides="1" tooltips="1" connect="1" arrows="1" fold="1" page="1" pageScale="1" pageWidth="4681" pageHeight="3300" math="0" shadow="0">
      <root>
        <mxCell id="0" />
        <mxCell id="1" parent="0" />
        <mxCell id="WZIwgjO6Ospco73MhqYw-19" value="" style="group" vertex="1" connectable="0" parent="1">
          <mxGeometry x="319.5" y="1000" width="140.5" height="80" as="geometry" />
        </mxCell>
        <mxCell id="WZIwgjO6Ospco73MhqYw-12" value="" style="rounded=1;whiteSpace=wrap;html=1;strokeColor=#000066;strokeWidth=2;" vertex="1" parent="WZIwgjO6Ospco73MhqYw-19">
          <mxGeometry width="140.5" height="80" as="geometry" />
        </mxCell>
        <mxCell id="WZIwgjO6Ospco73MhqYw-13" value="" style="group" vertex="1" connectable="0" parent="WZIwgjO6Ospco73MhqYw-19">
          <mxGeometry x="20.5" y="20" width="101" height="41" as="geometry" />
        </mxCell>
        <mxCell id="WZIwgjO6Ospco73MhqYw-14" value="" style="ellipse;whiteSpace=wrap;html=1;aspect=fixed;strokeColor=#000066;strokeWidth=2;" vertex="1" parent="WZIwgjO6Ospco73MhqYw-13">
          <mxGeometry x="31" y="1" width="40" height="40" as="geometry" />
        </mxCell>
        <mxCell id="WZIwgjO6Ospco73MhqYw-15" value="" style="endArrow=classic;html=1;rounded=0;strokeWidth=2;strokeColor=#000066;" edge="1" parent="WZIwgjO6Ospco73MhqYw-13">
          <mxGeometry width="50" height="50" relative="1" as="geometry">
            <mxPoint x="71.5" y="10" as="sourcePoint" />
            <mxPoint x="94" as="targetPoint" />
          </mxGeometry>
        </mxCell>
        <mxCell id="WZIwgjO6Ospco73MhqYw-16" value="" style="endArrow=classic;html=1;rounded=0;strokeWidth=2;strokeColor=#000066;" edge="1" parent="WZIwgjO6Ospco73MhqYw-13">
          <mxGeometry width="50" height="50" relative="1" as="geometry">
            <mxPoint x="70.5" y="33.5" as="sourcePoint" />
            <mxPoint x="93" y="41" as="targetPoint" />
          </mxGeometry>
        </mxCell>
        <mxCell id="WZIwgjO6Ospco73MhqYw-17" value="" style="endArrow=classic;html=1;rounded=0;strokeWidth=2;strokeColor=#000066;" edge="1" parent="WZIwgjO6Ospco73MhqYw-13">
          <mxGeometry width="50" height="50" relative="1" as="geometry">
            <mxPoint x="74" y="20.75999999999999" as="sourcePoint" />
            <mxPoint x="101" y="21" as="targetPoint" />
          </mxGeometry>
        </mxCell>
        <mxCell id="WZIwgjO6Ospco73MhqYw-18" value="" style="endArrow=classic;html=1;rounded=0;strokeWidth=2;strokeColor=#000066;" edge="1" parent="WZIwgjO6Ospco73MhqYw-13">
          <mxGeometry width="50" height="50" relative="1" as="geometry">
            <mxPoint y="20.75999999999999" as="sourcePoint" />
            <mxPoint x="27" y="21" as="targetPoint" />
          </mxGeometry>
        </mxCell>
        <mxCell id="WZIwgjO6Ospco73MhqYw-22" value="F5 Loadbalancing" style="text;html=1;align=center;verticalAlign=middle;resizable=0;points=[];autosize=1;strokeColor=none;fillColor=none;" vertex="1" parent="1">
          <mxGeometry x="334.75" y="1090" width="110" height="20" as="geometry" />
        </mxCell>
        <mxCell id="WZIwgjO6Ospco73MhqYw-24" value="" style="group" vertex="1" connectable="0" parent="1">
          <mxGeometry x="150" y="1020" width="50" height="60" as="geometry" />
        </mxCell>
        <mxCell id="WZIwgjO6Ospco73MhqYw-1" value="" style="shape=actor;whiteSpace=wrap;html=1;strokeColor=#000066;" vertex="1" parent="WZIwgjO6Ospco73MhqYw-24">
          <mxGeometry x="5" width="40" height="40" as="geometry" />
        </mxCell>
        <mxCell id="WZIwgjO6Ospco73MhqYw-2" value="Client" style="text;html=1;align=center;verticalAlign=middle;resizable=0;points=[];autosize=1;strokeColor=none;fillColor=none;" vertex="1" parent="WZIwgjO6Ospco73MhqYw-24">
          <mxGeometry y="40" width="50" height="20" as="geometry" />
        </mxCell>
        <mxCell id="WZIwgjO6Ospco73MhqYw-25" style="edgeStyle=orthogonalEdgeStyle;rounded=0;orthogonalLoop=1;jettySize=auto;html=1;strokeColor=#000066;strokeWidth=2;" edge="1" parent="1" source="WZIwgjO6Ospco73MhqYw-1" target="WZIwgjO6Ospco73MhqYw-12">
          <mxGeometry relative="1" as="geometry" />
        </mxCell>
        <mxCell id="WZIwgjO6Ospco73MhqYw-27" value="" style="rounded=1;whiteSpace=wrap;html=1;strokeColor=#000066;strokeWidth=2;" vertex="1" parent="1">
          <mxGeometry x="560" y="1000" width="120" height="80" as="geometry" />
        </mxCell>
        <mxCell id="WZIwgjO6Ospco73MhqYw-28" value="" style="shape=waypoint;sketch=0;fillStyle=solid;size=6;pointerEvents=1;points=[];fillColor=none;resizable=0;rotatable=0;perimeter=centerPerimeter;snapToPoint=1;strokeColor=#000066;strokeWidth=2;" vertex="1" parent="1">
          <mxGeometry x="537" y="1020" width="40" height="40" as="geometry" />
        </mxCell>
        <mxCell id="WZIwgjO6Ospco73MhqYw-29" value="" style="shape=waypoint;sketch=0;fillStyle=solid;size=6;pointerEvents=1;points=[];fillColor=none;resizable=0;rotatable=0;perimeter=centerPerimeter;snapToPoint=1;strokeColor=#000066;strokeWidth=2;" vertex="1" parent="1">
          <mxGeometry x="443.75" y="1020" width="40" height="40" as="geometry" />
        </mxCell>
        <mxCell id="WZIwgjO6Ospco73MhqYw-30" value="" style="line;strokeWidth=2;html=1;perimeter=backbonePerimeter;points=[];outlineConnect=0;strokeColor=#000066;" vertex="1" parent="1">
          <mxGeometry x="460" y="1035" width="100" height="10" as="geometry" />
        </mxCell>
        <mxCell id="WZIwgjO6Ospco73MhqYw-32" value="" style="endArrow=none;html=1;rounded=0;strokeColor=#000066;strokeWidth=2;exitX=0.25;exitY=0;exitDx=0;exitDy=0;entryX=0.25;entryY=0.25;entryDx=0;entryDy=0;entryPerimeter=0;" edge="1" parent="1" source="WZIwgjO6Ospco73MhqYw-27" target="WZIwgjO6Ospco73MhqYw-27">
          <mxGeometry width="50" height="50" relative="1" as="geometry">
            <mxPoint x="620" y="1060" as="sourcePoint" />
            <mxPoint x="670" y="1010" as="targetPoint" />
          </mxGeometry>
        </mxCell>
        <mxCell id="WZIwgjO6Ospco73MhqYw-33" value="" style="endArrow=none;html=1;rounded=0;strokeColor=#000066;strokeWidth=2;exitX=0.25;exitY=0;exitDx=0;exitDy=0;entryX=0.25;entryY=0.25;entryDx=0;entryDy=0;entryPerimeter=0;" edge="1" parent="1">
          <mxGeometry width="50" height="50" relative="1" as="geometry">
            <mxPoint x="619.8" y="1000" as="sourcePoint" />
            <mxPoint x="619.8" y="1020" as="targetPoint" />
          </mxGeometry>
        </mxCell>
        <mxCell id="WZIwgjO6Ospco73MhqYw-35" value="" style="endArrow=none;html=1;rounded=0;strokeColor=#000066;strokeWidth=2;exitX=0.25;exitY=0;exitDx=0;exitDy=0;entryX=0.25;entryY=0.25;entryDx=0;entryDy=0;entryPerimeter=0;" edge="1" parent="1">
          <mxGeometry width="50" height="50" relative="1" as="geometry">
            <mxPoint x="650" y="1000" as="sourcePoint" />
            <mxPoint x="650" y="1020" as="targetPoint" />
          </mxGeometry>
        </mxCell>
        <mxCell id="WZIwgjO6Ospco73MhqYw-36" value="" style="endArrow=none;html=1;rounded=0;strokeColor=#000066;strokeWidth=2;exitX=0;exitY=0.25;exitDx=0;exitDy=0;startSize=6;entryX=1;entryY=0.25;entryDx=0;entryDy=0;" edge="1" parent="1" target="WZIwgjO6Ospco73MhqYw-27">
          <mxGeometry width="50" height="50" relative="1" as="geometry">
            <mxPoint x="560" y="1020" as="sourcePoint" />
            <mxPoint x="600" y="1020" as="targetPoint" />
          </mxGeometry>
        </mxCell>
        <mxCell id="WZIwgjO6Ospco73MhqYw-39" value="" style="endArrow=none;html=1;rounded=0;strokeColor=#000066;strokeWidth=2;exitX=0;exitY=0.25;exitDx=0;exitDy=0;startSize=6;entryX=1;entryY=0.25;entryDx=0;entryDy=0;" edge="1" parent="1">
          <mxGeometry width="50" height="50" relative="1" as="geometry">
            <mxPoint x="560" y="1039.9" as="sourcePoint" />
            <mxPoint x="680.0000000000001" y="1039.9" as="targetPoint" />
          </mxGeometry>
        </mxCell>
        <mxCell id="WZIwgjO6Ospco73MhqYw-40" value="" style="endArrow=none;html=1;rounded=0;strokeColor=#000066;strokeWidth=2;exitX=0;exitY=0.25;exitDx=0;exitDy=0;startSize=6;entryX=1;entryY=0.25;entryDx=0;entryDy=0;" edge="1" parent="1">
          <mxGeometry width="50" height="50" relative="1" as="geometry">
            <mxPoint x="560" y="1060" as="sourcePoint" />
            <mxPoint x="680.0000000000001" y="1060" as="targetPoint" />
          </mxGeometry>
        </mxCell>
        <mxCell id="WZIwgjO6Ospco73MhqYw-41" value="" style="endArrow=none;html=1;rounded=0;strokeColor=#000066;strokeWidth=2;exitX=0.25;exitY=0;exitDx=0;exitDy=0;entryX=0.25;entryY=0.25;entryDx=0;entryDy=0;entryPerimeter=0;" edge="1" parent="1">
          <mxGeometry width="50" height="50" relative="1" as="geometry">
            <mxPoint x="605" y="1020" as="sourcePoint" />
            <mxPoint x="605" y="1040" as="targetPoint" />
          </mxGeometry>
        </mxCell>
        <mxCell id="WZIwgjO6Ospco73MhqYw-42" value="" style="endArrow=none;html=1;rounded=0;strokeColor=#000066;strokeWidth=2;exitX=0.25;exitY=0;exitDx=0;exitDy=0;entryX=0.25;entryY=0.25;entryDx=0;entryDy=0;entryPerimeter=0;" edge="1" parent="1">
          <mxGeometry width="50" height="50" relative="1" as="geometry">
            <mxPoint x="573" y="1020" as="sourcePoint" />
            <mxPoint x="573" y="1040" as="targetPoint" />
          </mxGeometry>
        </mxCell>
        <mxCell id="WZIwgjO6Ospco73MhqYw-43" value="" style="endArrow=none;html=1;rounded=0;strokeColor=#000066;strokeWidth=2;exitX=0.25;exitY=0;exitDx=0;exitDy=0;entryX=0.25;entryY=0.25;entryDx=0;entryDy=0;entryPerimeter=0;" edge="1" parent="1">
          <mxGeometry width="50" height="50" relative="1" as="geometry">
            <mxPoint x="590" y="1040" as="sourcePoint" />
            <mxPoint x="590" y="1060" as="targetPoint" />
          </mxGeometry>
        </mxCell>
        <mxCell id="WZIwgjO6Ospco73MhqYw-44" value="" style="endArrow=none;html=1;rounded=0;strokeColor=#000066;strokeWidth=2;exitX=0.25;exitY=0;exitDx=0;exitDy=0;entryX=0.25;entryY=0.25;entryDx=0;entryDy=0;entryPerimeter=0;" edge="1" parent="1">
          <mxGeometry width="50" height="50" relative="1" as="geometry">
            <mxPoint x="590" y="1040" as="sourcePoint" />
            <mxPoint x="590" y="1060" as="targetPoint" />
          </mxGeometry>
        </mxCell>
        <mxCell id="WZIwgjO6Ospco73MhqYw-45" value="" style="endArrow=none;html=1;rounded=0;strokeColor=#000066;strokeWidth=2;exitX=0.25;exitY=0;exitDx=0;exitDy=0;entryX=0.25;entryY=0.25;entryDx=0;entryDy=0;entryPerimeter=0;" edge="1" parent="1">
          <mxGeometry width="50" height="50" relative="1" as="geometry">
            <mxPoint x="635" y="1020" as="sourcePoint" />
            <mxPoint x="635" y="1040" as="targetPoint" />
          </mxGeometry>
        </mxCell>
        <mxCell id="WZIwgjO6Ospco73MhqYw-46" value="" style="endArrow=none;html=1;rounded=0;strokeColor=#000066;strokeWidth=2;exitX=0.25;exitY=0;exitDx=0;exitDy=0;entryX=0.25;entryY=0.25;entryDx=0;entryDy=0;entryPerimeter=0;fontStyle=1" edge="1" parent="1">
          <mxGeometry width="50" height="50" relative="1" as="geometry">
            <mxPoint x="610" y="1060" as="sourcePoint" />
            <mxPoint x="610" y="1080" as="targetPoint" />
          </mxGeometry>
        </mxCell>
        <mxCell id="WZIwgjO6Ospco73MhqYw-47" value="" style="endArrow=none;html=1;rounded=0;strokeColor=#000066;strokeWidth=2;exitX=0.25;exitY=0;exitDx=0;exitDy=0;entryX=0.25;entryY=0.25;entryDx=0;entryDy=0;entryPerimeter=0;fontStyle=1" edge="1" parent="1">
          <mxGeometry width="50" height="50" relative="1" as="geometry">
            <mxPoint x="619.9" y="1040" as="sourcePoint" />
            <mxPoint x="619.9" y="1060" as="targetPoint" />
          </mxGeometry>
        </mxCell>
        <mxCell id="WZIwgjO6Ospco73MhqYw-48" value="" style="endArrow=none;html=1;rounded=0;strokeColor=#000066;strokeWidth=2;exitX=0.25;exitY=0;exitDx=0;exitDy=0;entryX=0.25;entryY=0.25;entryDx=0;entryDy=0;entryPerimeter=0;fontStyle=1" edge="1" parent="1">
          <mxGeometry width="50" height="50" relative="1" as="geometry">
            <mxPoint x="577" y="1060" as="sourcePoint" />
            <mxPoint x="577" y="1080" as="targetPoint" />
          </mxGeometry>
        </mxCell>
        <mxCell id="WZIwgjO6Ospco73MhqYw-49" value="" style="endArrow=none;html=1;rounded=0;strokeColor=#000066;strokeWidth=2;exitX=0.25;exitY=0;exitDx=0;exitDy=0;entryX=0.25;entryY=0.25;entryDx=0;entryDy=0;entryPerimeter=0;fontStyle=1" edge="1" parent="1">
          <mxGeometry width="50" height="50" relative="1" as="geometry">
            <mxPoint x="650" y="1060" as="sourcePoint" />
            <mxPoint x="650" y="1080" as="targetPoint" />
          </mxGeometry>
        </mxCell>
        <mxCell id="WZIwgjO6Ospco73MhqYw-50" value="" style="endArrow=none;html=1;rounded=0;strokeColor=#000066;strokeWidth=2;exitX=0.25;exitY=0;exitDx=0;exitDy=0;entryX=0.25;entryY=0.25;entryDx=0;entryDy=0;entryPerimeter=0;fontStyle=1" edge="1" parent="1">
          <mxGeometry width="50" height="50" relative="1" as="geometry">
            <mxPoint x="660.0000000000001" y="1040" as="sourcePoint" />
            <mxPoint x="660.0000000000001" y="1060" as="targetPoint" />
          </mxGeometry>
        </mxCell>
        <mxCell id="WZIwgjO6Ospco73MhqYw-51" value="" style="endArrow=none;html=1;rounded=0;strokeColor=#000066;strokeWidth=2;exitX=0.25;exitY=0;exitDx=0;exitDy=0;entryX=0.25;entryY=0.25;entryDx=0;entryDy=0;entryPerimeter=0;fontStyle=1" edge="1" parent="1">
          <mxGeometry width="50" height="50" relative="1" as="geometry">
            <mxPoint x="670.0000000000001" y="1020" as="sourcePoint" />
            <mxPoint x="670.0000000000001" y="1040" as="targetPoint" />
          </mxGeometry>
        </mxCell>
        <mxCell id="WZIwgjO6Ospco73MhqYw-52" value="Firewall" style="text;html=1;align=center;verticalAlign=middle;resizable=0;points=[];autosize=1;strokeColor=none;fillColor=none;" vertex="1" parent="1">
          <mxGeometry x="590" y="1090" width="60" height="20" as="geometry" />
        </mxCell>
      </root>
    </mxGraphModel>
  </diagram>
</mxfile>
